<svg width="21" height="24" viewBox="0 0 21 24" fill="none" xmlns="http://www.w3.org/2000/svg">
    <path d="M10.405 3.07692C13.1645 3.07692 15.8111 4.17912 17.7624 6.14104C19.7137 8.10296 20.8099 10.7639 20.8099 13.5385C20.8099 16.313 19.7137 18.974 17.7624 20.9359C15.8111 22.8978 13.1645 24 10.405 24C7.6454 24 4.99886 22.8978 3.04755 20.9359C1.09624 18.974 0 16.313 0 13.5385C0 10.7639 1.09624 8.10296 3.04755 6.14104C4.99886 4.17912 7.6454 3.07692 10.405 3.07692ZM10.405 4.92308C8.13238 4.92308 5.95288 5.83077 4.34591 7.44647C2.73895 9.06216 1.83617 11.2535 1.83617 13.5385C1.83617 15.8234 2.73895 18.0148 4.34591 19.6305C5.95288 21.2462 8.13238 22.1538 10.405 22.1538C12.6776 22.1538 14.8571 21.2462 16.464 19.6305C18.071 18.0148 18.9738 15.8234 18.9738 13.5385C18.9738 11.2535 18.071 9.06216 16.464 7.44647C14.8571 5.83077 12.6776 4.92308 10.405 4.92308ZM10.405 6.76923C10.6268 6.76924 10.8412 6.85002 11.0084 6.99664C11.1756 7.14325 11.2843 7.34578 11.3145 7.56677L11.3231 7.69231V13.2308C11.323 13.4646 11.2346 13.6898 11.0758 13.8607C10.917 14.0316 10.6996 14.1355 10.4675 14.1514C10.2355 14.1674 10.006 14.0941 9.8256 13.9465C9.64516 13.799 9.52716 13.588 9.49545 13.3563L9.48689 13.2308V7.69231C9.48689 7.44749 9.58361 7.21271 9.75579 7.03959C9.92796 6.86648 10.1615 6.76923 10.405 6.76923ZM19.1537 3.21723L19.2553 3.29108L20.6728 4.47754C20.8503 4.62763 20.9648 4.83969 20.9931 5.07112C21.0215 5.30256 20.9617 5.5362 20.8257 5.72512C20.6897 5.91403 20.4877 6.0442 20.2602 6.08949C20.0327 6.13477 19.7966 6.09181 19.5993 5.96923L19.4989 5.89538L18.0802 4.70892C17.9027 4.55884 17.7883 4.34677 17.7599 4.11534C17.7315 3.88391 17.7913 3.65026 17.9273 3.46135C18.0633 3.27243 18.2653 3.14226 18.4928 3.09697C18.7203 3.05169 18.9564 3.09465 19.1537 3.21723ZM13.1592 0C13.3918 7.16832e-05 13.6157 0.0889164 13.7857 0.248582C13.9557 0.408247 14.059 0.626829 14.0749 0.86016C14.0908 1.09349 14.0179 1.32417 13.8711 1.5056C13.7243 1.68702 13.5145 1.80566 13.2841 1.83754L13.1592 1.84615H7.65071C7.4181 1.84608 7.19419 1.75724 7.02422 1.59757C6.85425 1.43791 6.7509 1.21933 6.73504 0.985994C6.71919 0.752663 6.79202 0.521979 6.93881 0.340555C7.0856 0.159131 7.29541 0.040494 7.52585 0.00861535L7.65071 0H13.1592Z" fill="black"/>
</svg>
