<svg width="80" height="77" viewBox="0 0 80 77" fill="none" xmlns="http://www.w3.org/2000/svg">
    <path d="M69.5507 31.3471C66.9645 31.344 64.4699 32.3049 62.5541 34.0421C62.4055 32.0984 61.7162 30.235 60.5641 28.6625C59.412 27.0901 57.8429 25.8712 56.0343 25.1438C54.2258 24.4164 52.2498 24.2094 50.3297 24.5462C48.4096 24.8831 46.6221 25.7503 45.1691 27.0498V10.4485C45.1691 7.67723 44.0682 5.01941 42.1086 3.05979C40.1489 1.10017 37.4911 -0.000732422 34.7198 -0.000732422C31.9485 -0.000732422 29.2907 1.10017 27.331 3.05979C25.3714 5.01941 24.2705 7.67723 24.2705 10.4485V51.3749L19.3681 43.5118C17.9456 41.1817 15.6679 39.5009 13.022 38.8287C10.3761 38.1566 7.57223 38.5466 5.21023 39.9154C2.84823 41.2841 1.11566 43.5228 0.383185 46.1526C-0.349296 48.7825 -0.0235237 51.5945 1.29081 53.9872L14.0563 75.7565C14.3051 76.1175 14.6809 76.3713 15.1086 76.4674C15.5363 76.5634 15.9844 76.4947 16.3637 76.2748C16.7429 76.055 17.0253 75.7002 17.1545 75.2813C17.2836 74.8624 17.2501 74.4102 17.0605 74.015L4.29933 52.2457C3.37556 50.6452 3.12539 48.7434 3.60386 46.9585C4.08234 45.1736 5.25026 43.6519 6.8507 42.7281C8.45114 41.8043 10.353 41.5542 12.1379 42.0326C13.9228 42.5111 15.4445 43.679 16.3682 45.2795L16.3987 45.3317L24.5317 58.3933C24.7315 58.7156 25.031 58.964 25.3848 59.1006C25.7385 59.2371 26.1272 59.2546 26.4917 59.1501C26.8562 59.0457 27.1767 58.8251 27.4045 58.5219C27.6323 58.2187 27.7548 57.8495 27.7536 57.4703V10.4485C27.7536 8.601 28.4875 6.82912 29.794 5.52271C31.1004 4.2163 32.8722 3.48236 34.7198 3.48236C36.5673 3.48236 38.3392 4.2163 39.6456 5.52271C40.952 6.82912 41.686 8.601 41.686 10.4485V40.0548C41.686 40.5167 41.8695 40.9597 42.1961 41.2863C42.5227 41.6129 42.9656 41.7964 43.4275 41.7964C43.8894 41.7964 44.3324 41.6129 44.659 41.2863C44.9856 40.9597 45.1691 40.5167 45.1691 40.0548V34.8302C45.1691 32.9827 45.903 31.2108 47.2094 29.9044C48.5158 28.5979 50.2877 27.864 52.1353 27.864C53.9828 27.864 55.7547 28.5979 57.0611 29.9044C58.3675 31.2108 59.1014 32.9827 59.1014 34.8302V43.5379C59.1014 43.9998 59.2849 44.4428 59.6115 44.7694C59.9381 45.096 60.3811 45.2795 60.843 45.2795C61.3049 45.2795 61.7478 45.096 62.0745 44.7694C62.4011 44.4428 62.5845 43.9998 62.5845 43.5379V41.7964C62.5845 39.9488 63.3185 38.177 64.6249 36.8705C65.9313 35.5641 67.7032 34.8302 69.5507 34.8302C71.3983 34.8302 73.1701 35.5641 74.4766 36.8705C75.783 38.177 76.5169 39.9488 76.5169 41.7964V57.4703C76.5169 67.3362 73.2472 74.0411 73.2167 74.1064C73.1142 74.3111 73.053 74.5339 73.0367 74.7623C73.0204 74.9906 73.0493 75.2198 73.1217 75.437C73.1941 75.6541 73.3085 75.8549 73.4586 76.0278C73.6086 76.2006 73.7912 76.3422 73.996 76.4445C74.2383 76.5643 74.505 76.6269 74.7754 76.6273C75.0989 76.6275 75.4161 76.5376 75.6914 76.3677C75.9667 76.1977 76.1893 75.9544 76.334 75.6651C76.4821 75.3647 80 68.2069 80 57.4703V41.7964C80 39.0251 78.8991 36.3672 76.9395 34.4076C74.9799 32.448 72.322 31.3471 69.5507 31.3471Z" fill="#E3E3E3"/>
</svg>
