<svg width="82" height="36" viewBox="0 0 82 36" fill="none" xmlns="http://www.w3.org/2000/svg">
    <path d="M21.4856 7.80978H14.5367L7.58785 17.7036L10.5431 0H4.63258L0 27.7505H5.91054L7.57188 17.798L13.8978 27.7505H21.0064L14.2987 17.6406L21.4856 7.80978Z" fill="#531A54"/>
    <path d="M55.9909 7.41351C53.3842 7.41351 51.421 8.33165 49.7584 9.94078L49.671 9.92533L49.4413 7.7703H44.0898V35.6793H49.9205V26.3048L50.0743 26.2735C51.5627 27.4708 53.5244 28.1471 55.7512 28.1471C61.2225 28.1471 65.3758 24.1034 65.3758 17.6812C65.3758 11.3779 61.4222 7.41351 55.9909 7.41351ZM54.7128 22.9538C51.7975 22.9538 49.9205 20.932 49.9205 17.7604C49.9205 14.6286 51.7975 12.6068 54.7128 12.6068C57.6282 12.6068 59.5051 14.6286 59.5051 17.7604C59.5051 20.932 57.6282 22.9538 54.7128 22.9538Z" fill="#531A54"/>
    <path d="M31.0699 7.41351C24.9597 7.41351 20.7264 11.7743 20.7264 17.7604C20.7264 23.8259 25.0396 28.1471 31.1498 28.1471C36.3015 28.1471 39.8159 25.0548 40.8542 21.5663H35.0636C34.2649 22.716 32.9869 23.2313 31.4294 23.2313C28.8763 23.2313 27.0556 21.8553 26.4537 19.5444H41.2536C42.0124 12.8446 37.899 7.41351 31.0699 7.41351ZM30.9901 12.3293C33.1115 12.3293 34.6822 13.5036 35.3379 15.5801H26.5631C27.2237 13.5563 28.8435 12.3293 30.9901 12.3293Z" fill="#531A54"/>
    <path d="M76.0138 13.3601H80.6704L81.5489 7.80999H76.9475L77.9946 1.58594H72.0841L71.0433 7.80999H67.771L66.8524 13.3601H70.1148L68.6895 21.8834C68.0505 25.8081 69.4882 27.7507 74.1208 27.7507H78.394L79.2726 22.2006H75.918C74.8796 22.2006 74.6001 21.8439 74.7598 20.8131L76.0138 13.3601Z" fill="#531A54"/>
</svg>
