<svg width="40" height="41" viewBox="0 0 40 41" fill="none" xmlns="http://www.w3.org/2000/svg">
    <path fill-rule="evenodd" clip-rule="evenodd" d="M40 20.1263C40 6.78148 27.0743 -2.65111 14.5292 1.48152L14.5268 1.48232C13.7244 1.75239 13.3211 2.61714 13.5528 3.40681L13.557 3.41964C13.8231 4.22561 14.6771 4.64017 15.4437 4.40201L15.4502 4.39987C26.0688 0.89743 36.9632 8.91269 36.9632 20.1483C36.9632 24.5704 35.1883 28.8096 32.113 31.9043L32.393 28.6771L32.3934 28.6707C32.4521 27.8406 31.8375 27.0925 31.0024 27.0322C30.1892 26.9736 29.4425 27.5632 29.3808 28.4344L28.7926 35.2084L28.7921 35.2149C28.7339 36.0379 29.3194 36.7914 30.181 36.8532L36.8862 37.4248C37.7198 37.5122 38.4543 36.8814 38.5167 36.0268C38.6019 35.1838 37.977 34.4491 37.1616 34.3609L34.2021 34.1062C38.0039 30.3237 40 25.2751 40 20.1263Z" fill="black"/>
    <path fill-rule="evenodd" clip-rule="evenodd" d="M5.14984e-05 20.8737C5.14984e-05 34.2185 12.9463 43.6511 25.5113 39.5185L25.5137 39.5177C26.3174 39.2476 26.7213 38.3829 26.4892 37.5932L26.485 37.5804C26.2185 36.7744 25.3632 36.3598 24.5954 36.598L24.5889 36.6001C13.9534 40.1026 3.04166 32.0873 3.04166 20.8517C3.04166 16.4296 4.81933 12.1904 7.89958 9.09571L7.61914 12.3229L7.61869 12.3293C7.55987 13.1594 8.17553 13.9075 9.01189 13.9678C9.82638 14.0264 10.5743 13.4368 10.6361 12.5656L11.2252 5.79155L11.2257 5.78509C11.284 4.96207 10.6976 4.20864 9.83466 4.1468L3.11879 3.57523C2.28381 3.48778 1.54821 4.11863 1.48571 4.97323C1.40034 5.81616 2.02627 6.5509 2.84293 6.63911L5.80717 6.8938C1.9993 10.6763 5.14984e-05 15.7249 5.14984e-05 20.8737Z" fill="black"/>
</svg>
